<svg xmlns="http://www.w3.org/2000/svg" viewBox="280 310 140 280">
  <g fill="#E9641B">
    <circle cx="416.7" cy="531.01" r="9.55"/>
    <path d="M391.29,362.36c-17.68-40.67-88.93-68.4-129.91-59.29-40.78,9.06-32.21,42.15-54.61,66.04-19.74,21.06-41.35,27.24-37.24,63.67,4.64,40.83,47.64,42.83,73.56,60.2,28.23,18.93,31.24,44.67,73.45,47.44,26.21,1.71,61.76-12.2,73.65-36.93,12.86-26.67-.77-43.9-1.41-68.18-.75-28.32,15.65-42.65,2.51-72.95ZM223.31,392.59c1.96-3.12,3.82-6.44,5.54-10.09,10.84-23.33,8.05-42.65,31.5-59.62,26.65-19.32,63.93-18.8,87.28,4.49,30.03,29.97,15.63,62.92,16.18,97.11v.2c.13,6.55-1.45,9.59-2.22,10.66-.07.09-.13.15-.18.22-.09.11-.18.2-.22.24l-.02.02c-2.02,2.18-4.44,2.68-4.44,2.68h.11c-26.58,4.84-48.94-5.83-63.1-15.7-24.32-16.97-48.15-21.96-66.4-22.56-3.82-.11-6.07-4.4-4.04-7.65ZM305.22,522.79c-26.14-.07-41.86-19.26-60.13-31.9-20.69-14.33-40.67-20.29-41.13-51.58-.17-10.99,2.49-19.13,6.35-26.38,3.23-6.09,9.63-9.83,16.53-9.63,17.79.53,41.2,5.32,65.14,22.03,18.86,13.15,36.5,17.35,51.29,17.35,5.45,0,10.51-.57,15.1-1.47,0,0,.02,0,.04-.02.11-.02.42-.11.9-.18h.09c2.13-.29,7.15-.15,10.31,6.35.04.07.09.15.11.24,2.95,6.71,5.89,13.26,6.51,19.3,3.12,30.43-33.72,56.02-71.12,55.89Z"/>
  </g>
</svg>
