<svg xmlns="http://www.w3.org/2000/svg" viewBox="95 345 405 150">
  <g fill="#FDFAE3">
    <text font-family="Geologica, sans-serif" font-size="15.97" font-weight="300" letter-spacing=".05em" transform="translate(189.29 488.09)">Where light meets rhythm</text>
    <path d="M197.49,376.35c-8.04-18.5-40.45-31.11-59.09-26.97-18.55,4.12-14.65,19.17-24.84,30.04-8.98,9.58-18.81,12.39-16.94,28.96,2.11,18.57,21.67,19.48,33.46,27.38,12.84,8.61,14.21,20.32,33.41,21.58,11.92.78,28.09-5.55,33.5-16.8,5.85-12.13-.35-19.97-.64-31.01-.34-12.88,7.12-19.4,1.14-33.18ZM121.08,390.1c.89-1.42,1.74-2.93,2.52-4.59,4.93-10.61,3.66-19.4,14.33-27.12,12.12-8.79,29.08-8.55,39.7,2.04,13.66,13.63,7.11,28.62,7.36,44.17v.09c.06,2.98-.66,4.36-1.01,4.85-.03.04-.06.07-.08.1-.04.05-.08.09-.1.11h-.01c-.92,1-2.02,1.23-2.02,1.23h.05c-12.09,2.2-22.26-2.65-28.7-7.14-11.06-7.72-21.9-9.99-30.2-10.26-1.74-.05-2.76-2-1.84-3.48ZM158.34,449.32c-11.89-.03-19.04-8.76-27.35-14.51-9.41-6.52-18.5-9.23-18.71-23.46-.08-5,1.13-8.7,2.89-12,1.47-2.77,4.38-4.47,7.52-4.38,8.09.24,18.74,2.42,29.63,10.02,8.58,5.98,16.6,7.89,23.33,7.89,2.48,0,4.78-.26,6.87-.67,0,0,0,0,.02-.01.05-.01.19-.05.41-.08h.04c.97-.13,3.25-.07,4.69,2.89.02.03.04.07.05.11,1.34,3.05,2.68,6.03,2.96,8.78,1.42,13.84-15.34,25.48-32.35,25.42Z"/>
    <path d="M215.8,350.21c11.98-.83,22.56-1.24,31.75-1.24,25.51,0,38.26,8.52,38.26,25.56,0,7.23-1.76,13.68-5.27,19.36-3.51,5.68-9.55,9.45-18.12,11.31l30.98,52.2h-14.41l-28.64-48.36c-1.07-1.8-3.01-2.91-5.11-2.91h-12.42c-2.31,0-4.18,1.87-4.18,4.18v47.09h-12.86v-107.19ZM247.56,350.52c-4.79,0-9.79.23-14.98.69-2.21.2-3.92,2.04-3.92,4.26v44.5c0,2.54,2.06,4.6,4.6,4.6h18.33c14.56-.62,21.84-10.53,21.84-29.74,0-7.85-2.17-13.86-6.51-18.05-4.34-4.18-10.79-6.27-19.36-6.27Z"/>
    <path d="M304.56,457.79h-1.86l45.58-106.71c.47-1.11,1.34-2,2.44-2.5h0s39.03,109.2,39.03,109.2h-13.17l-10.69-30.14c-.84-2.36-3.07-3.93-5.57-3.93h-37.3c-2.28,0-4.34,1.35-5.24,3.44l-13.23,30.63ZM341.96,371.27l-19.89,45.86c-1.03,2.38.71,5.04,3.31,5.04h33.09c2.72,0,4.62-2.69,3.71-5.25l-16.09-45.5c-.67-1.9-3.33-1.99-4.13-.14Z"/>
    <path d="M413.45,457.4h-12.86v-108.43h8.87c2.2,0,3.98,1.78,3.98,3.98v41.27c0,2.55,2.07,4.62,4.62,4.62h41.1c2.55,0,4.62-2.07,4.62-4.62v-45.25h9.09c2.08,0,3.76,1.69,3.76,3.76v104.66h-12.86v-52.43c0-2.53-2.05-4.57-4.57-4.57h-41.19c-2.53,0-4.57,2.05-4.57,4.57v52.43Z"/>
    <circle cx="493.78" cy="452.29" r="5.11"/>
  </g>
</svg>
